<?xml version="1.0" encoding="UTF-8" standalone="no"?>
<!-- Created with Inkscape (http://www.inkscape.org/) -->

<svg
   width="192.10928mm"
   height="43.37764mm"
   viewBox="0 0 192.10928 43.37764"
   version="1.1"
   id="svg1"
   xmlns="http://www.w3.org/2000/svg"
   xmlns:svg="http://www.w3.org/2000/svg">
  <defs
     id="defs1" />
  <g
     id="layer1"
     transform="translate(-20.135592,-67.509543)">
    <path
       style="font-size:28.2223px;font-family:'Aurellia Script';-inkscape-font-specification:'Aurellia Script';stroke-width:0.264583"
       d="m 64.980826,73.153967 c -2.427118,1.693337 -4.515568,4.1769 -6.208906,6.63224 2.511784,-5.559793 3.838232,-8.015133 5.503348,-9.877805 3.330231,-0.592668 3.951122,-2.398895 2.82223,-2.398895 -0.451557,0 -1.213559,0.310445 -2.201339,1.128892 -0.338668,0.282223 -0.649113,0.564446 -0.959559,0.874891 -2.060227,0.310445 -4.318011,0.423334 -9.115802,0.677335 -4.28979,0.225778 -8.579579,0.479779 -12.869369,0.846669 -5.729127,0.508001 -14.026483,1.439337 -18.626718,4.854236 -2.201339,1.636893 -3.189119,4.092233 -3.189119,5.446903 0,0.620891 0.197556,1.016003 0.592668,1.016003 0.338667,0 0.62089,-0.338667 0.62089,-0.762002 0,-0.423334 -0.310445,-0.846669 -0.762002,-0.73378 0.282223,-1.834449 1.46756,-3.527787 2.963342,-4.656679 4.515568,-3.330231 12.812924,-4.148678 18.457384,-4.65668 4.261567,-0.366889 8.551356,-0.508001 12.841146,-0.790224 3.584232,-0.225778 6.237128,-0.36689 8.607801,-0.705557 -2.540007,2.878674 -6.039572,9.962471 -7.083797,12.304922 -0.903113,1.975561 -1.72156,3.979344 -2.511784,5.983128 l -0.818447,2.032005 c -0.874891,-0.197556 -1.495782,0.282223 -1.495782,0.818447 0,0.338668 0.225778,0.677335 0.790224,0.903114 -1.100669,2.70934 -2.286006,5.390459 -3.668899,7.95869 -1.665115,3.1609 -4.797791,8.80536 -8.382023,8.6078 -0.282223,0 -0.310445,0.42333 -0.02822,0.42333 3.979344,0.0282 7.817577,-5.36223 9.426248,-8.49491 1.46756,-2.709339 2.709341,-5.503347 3.866455,-8.325577 0.338668,0 0.649113,-0.02822 0.931336,-0.05644 1.072447,1.411115 3.527788,6.039572 6.773352,9.736691 2.08845,2.51179 5.164681,5.05179 8.353801,5.70091 0.395112,0.0847 0.536223,-0.508 0.141111,-0.59267 -3.048008,-0.64911 -6.124239,-3.21734 -8.043355,-5.50335 -3.048009,-3.471343 -5.418682,-7.789355 -6.575796,-9.45447 12.474256,-2.370674 17.949383,-11.176031 17.949383,-16.538268 0,-2.483562 -1.185337,-4.233345 -3.386676,-4.233345 -1.241782,0 -2.850453,0.536224 -4.713124,1.83445 z M 54.764353,91.639573 c -0.225778,-0.310446 -0.36689,-0.451557 -0.649113,-0.705558 l 0.874891,-2.144895 2.257784,-5.53157 c 1.919117,-3.55601 4.713124,-7.422465 7.986911,-9.736694 1.721561,-1.213558 3.132675,-1.749782 4.233345,-1.749782 1.72156,0 2.624674,1.326448 2.624674,3.330231 0,4.882458 -5.418681,13.716038 -17.328492,16.538268 z M 65.178382,68.977066 c 1.298225,-1.185336 2.003783,-1.298226 2.003783,-0.98778 0,0.310445 -0.762002,1.044225 -2.427118,1.382892 z m -12.333145,21.872282 -0.338668,0.818447 c -0.931336,-0.310445 -0.536224,-1.072447 0.338668,-0.818447 z m 0.931336,0.931336 c 0.02822,-0.112889 0.05644,-0.197556 0.112889,-0.282223 0.225778,0.225779 0.08467,0.08467 0.225778,0.254001 -0.112889,0 -0.225778,0 -0.338667,0.02822 z m 26.839412,-2.003783 c -1.524005,1.35467 -6.096017,4.967125 -7.958689,5.842016 -0.592668,0.282223 -1.072447,0.395112 -1.411115,0.395112 -0.536224,0 -0.762002,-0.338667 -0.762002,-0.903113 0,-0.677336 0.338668,-1.693338 0.846669,-2.906897 0.141112,-0.338668 0.310445,-0.705558 0.508001,-1.044225 1.10067,0.02822 2.173117,-0.310446 2.681119,-1.298226 0.141111,-0.282223 0.197556,-0.564446 0.197556,-0.818447 0,-0.536224 -0.282223,-0.959558 -0.790224,-0.959558 -0.395113,0 -0.931336,0.254001 -1.552227,0.874891 -0.846669,0.818447 -1.439337,1.83445 -1.919116,2.850453 -0.479779,1.044225 -0.790225,2.08845 -0.790225,2.935119 0,1.016002 0.423335,1.72156 1.411115,1.72156 0.451557,0 1.016003,-0.141112 1.749783,-0.508001 2.003783,-1.044226 6.039572,-4.092234 8.0998,-5.898461 0.197556,-0.169334 -0.05644,-0.508001 -0.310445,-0.282223 z m -7.704688,-0.338668 c 1.241781,-1.608671 1.552226,-0.508001 1.185336,0.225779 -0.423334,0.931336 -1.326448,1.072447 -2.032005,1.072447 0.254,-0.451557 0.536223,-0.874891 0.846669,-1.298226 z m 16.622935,0.338668 c -1.524004,1.35467 -6.096017,4.967125 -7.958689,5.842016 -0.592668,0.282223 -1.072447,0.395112 -1.411115,0.395112 -0.536223,0 -0.762002,-0.338667 -0.762002,-0.903113 0,-0.677336 0.338668,-1.693338 0.846669,-2.906897 0.141112,-0.338668 0.310446,-0.705558 0.508002,-1.044225 1.100669,0.02822 2.173117,-0.310446 2.681118,-1.298226 0.141112,-0.282223 0.197556,-0.564446 0.197556,-0.818447 0,-0.536224 -0.282223,-0.959558 -0.790224,-0.959558 -0.395112,0 -0.931336,0.254001 -1.552227,0.874891 -0.846669,0.818447 -1.439337,1.83445 -1.919116,2.850453 -0.479779,1.044225 -0.790224,2.08845 -0.790224,2.935119 0,1.016002 0.423334,1.72156 1.411115,1.72156 0.451556,0 1.016002,-0.141112 1.749782,-0.508001 2.003783,-1.044226 6.039572,-4.092234 8.0998,-5.898461 0.197556,-0.169334 -0.05645,-0.508001 -0.310445,-0.282223 z m -7.704688,-0.338668 c 1.241781,-1.608671 1.552226,-0.508001 1.185337,0.225779 -0.423335,0.931336 -1.326448,1.072447 -2.032006,1.072447 0.254001,-0.451557 0.536224,-0.874891 0.846669,-1.298226 z m 17.723601,0.310446 c -4.487346,5.221125 -5.418682,6.321795 -6.575796,7.535354 -1.749782,1.806227 -2.483562,2.144894 -2.483562,1.411115 0,-0.620891 0.508001,-2.032006 1.382892,-3.979345 0,-0.02822 1.495782,-3.44312 1.495782,-3.44312 0.423335,-1.044225 0.36689,-1.665116 -0.05644,-1.665116 -0.338668,0 -0.874892,0.36689 -1.665116,1.185337 -0.620891,0.62089 -1.411115,1.552226 -2.935119,3.330231 1.128892,-2.765785 1.72156,-4.289789 1.778005,-4.854235 0,-0.310446 -0.649113,-0.169334 -0.818447,-0.02822 -0.508001,1.044225 -1.975561,5.02357 -2.032006,5.221126 -0.310445,1.157114 0.05645,1.241781 0.395113,1.185336 0,0 2.370673,-3.160897 3.866455,-4.600235 0.282223,-0.282223 0.677335,-0.62089 1.016002,-0.818446 -0.112889,0.197556 -0.254,0.479779 -0.366889,0.705557 -0.790225,1.749783 -1.072448,2.342451 -1.524005,3.414898 -0.762002,2.003784 -1.100669,3.386676 -1.100669,4.205123 0,0.649113 0.197556,0.959558 0.592668,0.959558 0.564446,0 1.524004,-0.677335 2.737563,-1.947338 2.003783,-2.088451 5.559793,-6.434685 6.63224,-7.620021 0.169338,-0.225779 -0.169333,-0.423335 -0.338667,-0.197556 z m 10.075385,-0.02822 c -0.0564,0 -0.11289,0.02822 -0.14111,0.08467 -1.58045,1.665116 -6.99913,7.309576 -8.91825,7.309576 -0.36689,0 -0.592668,-0.225779 -0.592668,-0.762002 0,-0.423335 0.141108,-1.072448 0.451558,-1.919117 0.56444,-1.608671 1.524,-3.612454 2.20134,-5.27757 0,-0.05644 -0.14111,-0.112889 -0.33867,-0.112889 -0.28222,0 -0.64911,0.112889 -0.81845,0.479779 -0.16933,-0.141111 -0.39511,-0.225778 -0.67733,-0.225778 -1.608673,0 -3.132677,1.975561 -3.132677,3.471343 0,0.479779 0.169334,0.818446 0.536224,0.818446 0.395112,0 0.959558,-0.366889 1.72156,-1.298225 0.169333,-0.169334 0.310443,-0.36689 0.479783,-0.592669 -0.33867,0.762002 -0.620895,1.552227 -0.903118,2.427118 -0.254,0.818447 -0.366889,1.524004 -0.366889,2.08845 0,0.931336 0.338667,1.46756 1.072447,1.46756 2.3989,0 7.73291,-5.616238 9.59558,-7.591799 0.0282,-0.05644 0.0564,-0.08467 0.0564,-0.141111 0,-0.112889 -0.11289,-0.225779 -0.22578,-0.225779 z m -11.2607,3.443121 c -0.05644,0 -0.112889,-0.05645 -0.112889,-0.141112 0,-0.818446 1.749779,-3.217342 2.737559,-3.217342 0.11289,0 0.19756,0.02822 0.28223,0.112889 -0.0282,0.02822 -0.0282,0.02822 -0.0282,0.05644 -0.39512,0.592668 -2.286011,3.18912 -2.87868,3.18912 z M 131.3597,83.51155 c 2.31423,-4.261567 -2.96334,-4.346234 -3.81001,-0.225778 -0.254,1.157114 -0.14111,2.286006 0.0564,3.414898 -2.9069,2.144895 -7.47891,4.826014 -7.16847,8.46669 0.28223,3.358454 4.85424,3.302009 8.04336,1.016003 -0.762,2.652896 -2.59645,5.080017 -5.27757,5.926687 -2.42712,0.79022 -4.00757,-0.36689 -3.6689,-1.97557 0.0282,-0.197551 -0.28222,-0.225773 -0.31045,-0.0282 -0.254,2.00379 1.60868,2.93512 4.03579,2.20134 2.45534,-0.762 5.13646,-3.273785 5.89846,-6.660461 3.6689,-3.245564 3.13268,-8.0998 -0.59266,-7.055575 0,0 -0.36689,-1.552226 -0.36689,-1.580448 1.07244,-0.931336 2.39889,-2.144895 3.16089,-3.499566 z m -2.11667,11.684032 c 0.14111,-0.790224 0.14111,-1.439337 0.11289,-2.173117 0.73378,-0.98778 1.12889,-2.314228 1.12889,-2.906896 0,-0.197557 -0.31044,-0.225779 -0.31044,-0.02822 -0.0847,0.874892 -0.36689,1.749783 -0.84667,2.511785 -0.11289,-1.298226 -0.42334,-2.568229 -0.70556,-3.781788 3.4149,-0.987781 3.81001,3.358453 0.62089,6.378239 z m -0.39511,-1.919116 c -2.28601,2.737563 -4.57201,1.326448 -3.10445,-1.778005 0.53622,-1.044225 1.29822,-1.947338 2.37067,-2.483562 0.33867,1.439337 0.67733,2.82223 0.73378,4.261567 z m -0.79023,-4.459123 c -1.12889,0.536223 -1.94733,1.495782 -2.51178,2.596451 -1.52401,3.273787 0.84667,4.854236 3.30201,2.257784 0,0.620891 -0.0282,1.213559 -0.254,2.060228 -3.07623,2.370673 -7.56358,2.427118 -7.56358,-0.592668 0.0282,-2.709341 3.07623,-4.628457 6.71691,-7.73291 0.0564,0.197556 0.31044,1.35467 0.31044,1.411115 z m 0.0282,-2.45534 c -0.16934,-1.016003 -0.254,-1.975561 -0.0282,-2.963342 0.73378,-3.640676 5.02357,-3.584232 2.96335,-0.08467 -0.67734,1.185337 -1.86268,2.20134 -2.93512,3.048009 z m 44.2808,-13.74426 c 0.87489,-0.254001 1.74978,-0.508002 2.62467,-0.818447 1.58045,-0.62089 2.22956,-1.439337 2.22956,-2.003783 0,-0.395112 -0.31044,-0.649113 -0.87489,-0.649113 -0.98778,0 -2.73756,0.818447 -4.71312,3.302009 -3.04801,0.846669 -7.67647,1.862672 -11.14781,3.132675 -2.3989,0.874892 -4.71313,1.947339 -6.35002,3.9229 -1.524,1.806227 -2.39889,4.769569 -2.39889,6.491129 0,0.846669 0.22577,1.411115 0.64911,1.411115 0.33867,0 0.62089,-0.338668 0.62089,-0.762002 0,-0.451557 -0.36689,-0.874892 -0.79023,-0.705558 0.11289,-2.229561 0.73378,-4.487345 2.17312,-6.208906 1.55223,-1.947338 3.89468,-3.048008 6.20891,-3.894677 3.58423,-1.298226 7.30957,-2.060228 10.66803,-2.935119 -2.70934,3.584232 -4.12046,7.337798 -7.47891,15.324708 -7.25313,1.608672 -14.50626,5.334015 -17.52605,12.022696 -0.81845,1.80623 -1.15711,3.52779 -1.15711,5.0518 0,3.24556 1.60867,5.58801 4.09223,5.58801 2.14489,0 4.96712,-1.74978 7.93046,-6.12424 6.20891,-9.22869 11.03492,-26.331403 15.24005,-32.145197 z m 2.48356,-1.185337 c -0.70556,0.254001 -1.41112,0.508002 -2.1449,0.705558 2.17312,-2.794008 4.12046,-2.935119 4.12046,-2.257784 0,0.36689 -0.56445,0.98778 -1.97556,1.552226 z m -18.62672,32.737864 c -2.73756,4.40268 -5.27757,6.12424 -7.19669,6.12424 -2.14489,0 -3.49956,-2.14489 -3.49956,-5.08001 0,-1.46756 0.33867,-3.13268 1.07245,-4.79779 2.87867,-6.575798 9.90602,-10.188252 16.98982,-11.712256 -1.83445,4.318011 -4.14868,10.047138 -7.36602,15.465816 z m 24.10186,-14.449814 c -0.0564,0 -0.11289,0.02822 -0.14111,0.08467 -1.58045,1.665116 -6.99913,7.309576 -8.91825,7.309576 -0.36689,0 -0.59267,-0.225779 -0.59267,-0.762002 0,-0.423335 0.14111,-1.072448 0.45156,-1.919117 0.56445,-1.608671 1.524,-3.612454 2.20134,-5.27757 0,-0.05644 -0.14111,-0.112889 -0.33867,-0.112889 -0.28222,0 -0.64911,0.112889 -0.81844,0.479779 -0.16934,-0.141111 -0.39512,-0.225778 -0.67734,-0.225778 -1.60867,0 -3.13268,1.975561 -3.13268,3.471343 0,0.479779 0.16934,0.818446 0.53623,0.818446 0.39511,0 0.95956,-0.366889 1.72156,-1.298225 0.16933,-0.169334 0.31044,-0.36689 0.47978,-0.592669 -0.33867,0.762002 -0.62089,1.552227 -0.90312,2.427118 -0.254,0.818447 -0.36689,1.524004 -0.36689,2.08845 0,0.931336 0.33867,1.46756 1.07245,1.46756 2.3989,0 7.73291,-5.616238 9.59558,-7.591799 0.0282,-0.05644 0.0564,-0.08467 0.0564,-0.141111 0,-0.112889 -0.11289,-0.225779 -0.22578,-0.225779 z m -11.2607,3.443121 c -0.0564,0 -0.11289,-0.05645 -0.11289,-0.141112 0,-0.818446 1.74979,-3.217342 2.73757,-3.217342 0.11289,0 0.19755,0.02822 0.28222,0.112889 -0.0282,0.02822 -0.0282,0.02822 -0.0282,0.05644 -0.39512,0.592668 -2.28601,3.18912 -2.87868,3.18912 z m 9.87783,1.890894 c 0,-1.834449 2.37067,-6.462907 3.49956,-6.462907 0.25401,0 0.36689,0.225779 0.36689,0.508002 0,0.310445 -0.16933,0.705557 -0.45155,1.044225 -0.16934,0.225778 0.14111,0.508001 0.33867,0.282223 0.36688,-0.423335 0.53622,-0.903114 0.53622,-1.326448 0,-0.592669 -0.31045,-1.016003 -0.87489,-1.016003 -1.69334,0 -4.23335,4.120456 -4.23335,6.575796 0,1.157114 0.45156,1.806227 1.43934,1.806227 2.87867,0 8.97469,-5.64446 9.82136,-6.406462 0.19756,-0.169334 -0.0564,-0.508001 -0.28222,-0.282223 -1.24178,1.072447 -6.94269,6.237128 -9.36981,6.237128 -0.56444,0 -0.79022,-0.310445 -0.79022,-0.959558 z m 19.47338,-5.221125 c -0.0847,-0.08467 -0.22578,-0.08467 -0.31044,-0.02822 -1.01601,0.818447 -2.17312,1.495782 -3.35846,2.003784 -1.10067,0.451556 -2.22956,0.790224 -3.38667,0.903113 0.70556,-1.241781 0.95956,-2.229562 0.95956,-2.963341 0,-1.157115 -0.70556,-1.693338 -1.55223,-1.693338 -1.27,0 -2.9069,1.128892 -2.96334,3.048008 -0.0282,0.141112 0,0.254001 0.0282,0.395112 -0.28222,0.592669 -0.53622,1.213559 -0.64911,1.890894 -0.19756,1.382893 0.31044,2.173117 1.12889,2.173117 0.47978,0 1.10067,-0.282223 1.69334,-0.931336 0.39511,-0.451556 0.762,-0.959558 1.10067,-1.467559 1.32645,-0.08467 2.59645,-0.451557 3.81001,-0.959558 1.24178,-0.536224 2.39889,-1.213559 3.47134,-2.060228 0.0847,-0.08467 0.0847,-0.225779 0.0282,-0.310445 z m -9.3698,-0.11289 c -0.31045,0.282223 -0.56445,0.620891 -0.762,0.959559 0.31044,-1.382893 1.49578,-2.229562 2.42711,-2.229562 0.64912,0 1.18534,0.423334 1.18534,1.35467 0,0.677335 -0.28222,1.665116 -1.016,2.963342 -0.62089,0 -1.24178,-0.05645 -1.77801,-0.282223 -0.22577,-0.08467 -0.39511,-0.225779 -0.53622,-0.395112 0.28222,-0.649113 0.67734,-1.270004 1.18534,-1.778005 0.31044,-0.36689 -0.33867,-0.705558 -0.70556,-0.592669 z m 0.67733,4.65668 c -0.47977,0.479779 -0.90311,0.705557 -1.18533,0.705557 -0.508,0 -0.70556,-0.592668 -0.47978,-1.524004 0.0847,-0.338667 0.19755,-0.677335 0.31044,-1.016003 0.16934,0.141112 0.36689,0.254001 0.56445,0.338668 0.53622,0.225778 1.10067,0.310445 1.66512,0.310445 -0.254,0.423335 -0.53623,0.818447 -0.8749,1.185337 z m 20.91273,-4.65668 c -0.0565,0 -0.11289,0 -0.16933,0.05644 -3.21735,3.302009 -7.45069,5.475126 -11.74048,6.321795 0.0847,-0.08467 0.14111,-0.169334 0.22578,-0.225778 0.42333,-0.564446 0.93133,-1.382893 0.93133,-2.116673 0,-1.016003 -0.70555,-1.213559 -1.43933,-0.73378 -0.62089,0.47978 -1.18534,1.044225 -1.58045,1.608671 0.42333,-1.044225 1.15711,-2.652896 2.11667,-4.713124 1.778,-0.931335 3.44312,-1.947338 4.96712,-3.160897 3.13268,-2.45534 8.29736,-7.591799 8.29736,-11.909811 0,-1.439337 -0.67733,-2.229561 -1.74978,-2.229561 -1.15712,0 -2.76579,0.903113 -4.4309,2.878674 -1.97556,2.257784 -3.78179,5.729127 -5.13646,8.353801 -0.73378,1.439337 -5.53157,11.260698 -5.53157,12.0227 0,0.395112 0.84667,0.254 0.90311,0.05644 0.33867,-0.508001 0.62089,-0.874891 1.016,-1.326448 0.33867,-0.36689 1.24179,-1.382892 1.74979,-1.382892 0.19755,0 0.28222,0.141111 0.28222,0.310445 0,0.564446 -0.73378,1.35467 -1.10067,1.749782 -0.19756,0.225779 -0.59267,0.649113 -1.016,1.072448 -1.8909,0.282223 -2.54001,0.846669 -2.54001,1.270003 0,0.254001 0.31045,0.479779 0.73378,0.479779 0.84667,0 2.03201,-0.790224 2.85045,-1.552226 4.91068,-0.846669 9.20047,-3.104453 12.50248,-6.491129 0.0565,-0.02822 0.0565,-0.08467 0.0565,-0.141112 0,-0.112889 -0.0847,-0.197556 -0.19756,-0.197556 z m -8.91825,-5.446903 c 1.6369,-3.18912 3.13268,-5.954906 4.93891,-8.269134 1.63689,-2.060228 2.99156,-2.906897 3.89467,-2.906897 0.81845,0 1.27001,0.649113 1.27001,1.806227 0,4.120456 -5.13646,9.172247 -8.15625,11.514698 -1.35467,1.10067 -2.85045,2.032006 -4.40268,2.878675 0.70556,-1.495782 1.52401,-3.18912 2.45534,-5.023569 z M 195.31148,97.6227 c -0.11289,0 -0.16933,-0.02822 -0.16933,-0.08467 0,-0.141111 0.45155,-0.451556 1.55222,-0.705557 -0.508,0.451557 -1.04422,0.790224 -1.38289,0.790224 z"
       id="text1"
       aria-label="Reena &amp; Jacob" />
  </g>
</svg>
